<svg xmlns="http://www.w3.org/2000/svg" width="32" height="28"><path d="M16 22.352a8.672 8.672 0 0 1-1.398-.102l-.385-.067v1.992a29.6 29.6 0 0 1 3.566 0v-1.992l-.385.067a8.672 8.672 0 0 1-1.398.102zm-2.318 3.431a.784.784 0 0 1-.358.032c-2.536.246-4.81.84-6.467 1.709a.782.782 0 1 1-.727-1.388c1.71-.897 3.99-1.526 6.52-1.822V21.91L2.374 20.123C1.302 19.937.461 18.938.461 17.848V2.453A2.07 2.07 0 0 1 2.528.386h26.944a2.07 2.07 0 0 1 2.067 2.067v15.395c0 1.09-.841 2.089-1.914 2.275L19.35 21.91v2.404c2.53.296 4.81.925 6.52 1.822a.783.783 0 0 1-.727 1.388c-2.224-1.166-5.556-1.836-9.143-1.836-.788 0-1.564.032-2.318.095zM2.528 1.953c-.271 0-.5.229-.5.5v15.395c0 .327.293.676.615.731l12.227 2.127c.578.101 1.682.101 2.26 0l12.227-2.127c.322-.055.615-.404.615-.731V2.453c0-.271-.229-.5-.5-.5zM28.189 17.35H3.811a.783.783 0 0 1-.783-.784V3.735c0-.432.35-.783.783-.783h24.378c.433 0 .783.351.783.783v12.831c0 .433-.35.784-.783.784zM4.595 15.783h22.811V4.519H4.595zM16 18.49a.641.641 0 1 1 .002 1.282A.641.641 0 0 1 16 18.49z" fill="#fff"/></svg>