<svg xmlns="http://www.w3.org/2000/svg" width="32" height="30"><path d="M29.47 1.67h-1.905c.291-.875.912-1.567 1.905-1.567 1.87 0 2.07 3.24 2.07 4.633 0 .433-.35.784-.78.784h-1.78c.03 5.715-.25 18.192-3.06 21.074-.47.489-1.02.737-1.61.737h-4.663c-.136.676-.39 1.291-.857 1.761-.53.535-1.26.805-2.18.805H1.25c-.03 0-.06-.002-.09-.004a.786.786 0 0 1-.7-.779c0-.026 0-.053.01-.078a.777.777 0 0 1 .78-.706c.7 0 .92-.238.99-.316.5-.549.38-1.938.27-3.162-.13-1.45-.26-2.817.49-3.633.24-.268.69-.587 1.45-.587h5.77c1.27-6.992 1.15-17.7 1.15-17.811.02-1.321.69-2.718 2.1-2.718.43 0 .78.35.78.784a.784.784 0 1 1-.78-.784h16c.43 0 .79.35.79.784a.79.79 0 0 1-.79.783zm-1.905 0H13.47c-.42 0-.53.967-.54 1.157.01.427.12 10.682-1.116 17.805h8.646c.69 0 1.23.195 1.61.579.64.642.63 1.605.62 2.457-.01.696-.02 1.418.31 1.751.23.229.67.346 1.31.346.06 0 .23 0 .49-.264 2.28-2.343 2.66-14.349 2.61-20.714v-.09c-.01-.698-.02-1.327-.04-1.865a4 4 0 0 1 .195-1.162zm-9.13 20.528H4.45c-.15 0-.25.027-.29.077-.28.307-.17 1.537-.09 2.435.11 1.227.23 2.584-.2 3.62h12.74c.49 0 .84-.112 1.07-.343.57-.572.56-1.968.55-3.2-.007-.943-.013-1.851.206-2.589zm5.265-2.565h-8.98a.784.784 0 1 1 0-1.568h8.98c.43 0 .78.351.78.785 0 .432-.35.783-.78.783zm.64-5.133h-8.98a.79.79 0 0 1-.79-.783.79.79 0 0 1 .79-.783h8.98c.43 0 .78.35.78.783 0 .433-.35.783-.78.783zm-.64-2.565h-8.34a.791.791 0 0 1-.79-.784c0-.433.36-.784.79-.784h8.34c.43 0 .78.351.78.784 0 .433-.35.784-.78.784zm-.64 5.131h-7.7a.79.79 0 0 1-.79-.783.79.79 0 0 1 .79-.783h7.7c.43 0 .78.349.78.783 0 .433-.35.783-.78.783zm1.28-7.698h-7.06c-.43 0-.78-.35-.78-.783 0-.433.35-.783.78-.783h7.06c.43 0 .78.35.78.783 0 .433-.35.783-.78.783zm-4.543 16.397h1.593c-.284-.68-.277-1.455-.27-2.115.01-.516.01-1.159-.16-1.337-.07-.073-.26-.115-.5-.115-.25 0-.32.074-.35.103-.33.331-.32 1.519-.31 2.475.002.323.004.656-.003.989zM18.57 6.803H16a.782.782 0 0 1-.78-.783c0-.434.35-.785.78-.785h2.57c.43 0 .78.351.78.785 0 .432-.35.783-.78.783zm10.4-2.851h.97c-.08-1.054-.29-2.03-.52-2.277-.41.087-.48 1.138-.48 1.149.01.211.02.599.03 1.128z" fill="#fff"/></svg>