<svg xmlns="http://www.w3.org/2000/svg" width="32" height="22"><path d="M21.77 21.41H3.81c-1.14 0-2.07-.93-2.07-2.07V9.08c0-1.14.93-2.07 2.07-2.07h10.76V5.23c0-.28-.22-.5-.49-.5H1.24c-.43 0-.78-.35-.78-.79 0-.43.35-.78.78-.78h12.84c1.13 0 2.06.93 2.06 2.07v1.78h3.57V3.94c0-1.14.92-2.06 2.06-2.06h1.941A2.06 2.06 0 0 1 25.62.59h3.85c1.14 0 2.07.93 2.07 2.07 0 1.14-.93 2.07-2.07 2.07h-3.85a2.06 2.06 0 0 1-1.909-1.29H21.77c-.27 0-.5.23-.5.5v3.07h.5c1.14 0 2.07.93 2.07 2.07v2.03l5.66-2.36c.45-.19.97-.14 1.38.13.41.28.66.74.66 1.23v8.19a1.483 1.483 0 0 1-1.48 1.48c-.19 0-.38-.04-.56-.12l-5.66-2.36v2.04c0 1.14-.93 2.07-2.07 2.07zm2.07-8.6v2.8l6.13 2.55v-7.91zM3.81 8.58c-.27 0-.5.22-.5.5v10.26c0 .28.23.5.5.5h17.96c.28 0 .5-.22.5-.5V9.08c0-.28-.22-.5-.5-.5zm4.49 8.34c-1.49 0-2.71-1.22-2.71-2.71 0-1.5 1.22-2.71 2.71-2.71h8.98a.785.785 0 0 1 0 1.57h-2.459a2.714 2.714 0 0 1 2.459-1.57c1.5 0 2.71 1.21 2.71 2.71 0 1.49-1.21 2.71-2.71 2.71-1.49 0-2.71-1.22-2.71-2.71 0-.408.09-.794.251-1.14h-4.06a2.712 2.712 0 0 1-2.46 3.85zm0-3.85a1.14 1.14 0 1 0-.001 2.279A1.14 1.14 0 0 0 8.3 13.07zm8.98 0a1.14 1.14 0 1 0-.001 2.279 1.14 1.14 0 0 0 .001-2.279zm8.34-10.91c-.27 0-.5.22-.5.5s.23.5.5.5h3.85c.28 0 .5-.22.5-.5s-.22-.5-.5-.5z" fill="#fff"/></svg>