<svg xmlns="http://www.w3.org/2000/svg" width="26" height="32"><path d="M15.129 31.539h-1.283c-1 0-2.912-.828-2.912-2.124v-9.622c0-1.33 1.346-2.296 2.566-2.604v-3.114a.506.506 0 0 0-.5-.499H2.735a2.07 2.07 0 0 1-2.066-2.067V6.377c0-1.139.927-2.066 2.066-2.066h.5V1.245c0-.434.351-.784.784-.784h19.245c.433 0 .784.35.784.784v3.066h.5a.783.783 0 1 1 0 1.566h-.5v3.066a.784.784 0 0 1-.784.784H4.019a.784.784 0 0 1-.784-.784V5.877h-.5a.5.5 0 0 0-.499.5v5.132c0 .271.229.499.499.499H13a2.07 2.07 0 0 1 2.067 2.067v3.114c1.22.309 2.565 1.274 2.565 2.604v9.622c0 1.176-1.369 2.124-2.503 2.124zM4.802 8.16h17.679V2.028H4.802zm9.481 10.491c-.766 0-1.782.651-1.782 1.142v9.622c.098.155.901.556 1.345.556h1.283c.379 0 .913-.378.937-.558v-9.62c0-.491-1.016-1.142-1.783-1.142z" fill="#fff"/></svg>