<svg xmlns="http://www.w3.org/2000/svg" width="28" height="32"><path d="M10.966 27.474v-.512a14.84 14.84 0 0 1-8.544-3.746l-.365.364a.753.753 0 0 1-.554.23c-.2 0-.4-.07-.554-.23a.788.788 0 0 1 0-1.11l1.815-1.81a.775.775 0 0 1 1.107 0c.307.31.307.8 0 1.11l-.337.337c5.228 4.647 13.27 4.477 18.282-.537 5.013-5.015 5.191-13.062.535-18.284l-.334.334a.754.754 0 0 1-.554.23c-.2 0-.401-.07-.554-.23a.774.774 0 0 1 0-1.1l.885-.887a.759.759 0 0 1 .042-.043l.888-.89a.776.776 0 0 1 1.108 0c.306.31.306.8 0 1.11l-.369.368c5.263 5.842 5.083 14.878-.539 20.502a14.837 14.837 0 0 1-9.109 4.282v.512a13.496 13.496 0 0 1 6.719 2.646c.271.2.38.55.275.87a.79.79 0 0 1-.745.54H4.715a.787.787 0 0 1-.743-.54.776.776 0 0 1 .273-.87 13.502 13.502 0 0 1 6.721-2.646zm1.425-4.284c-6.092 0-11.048-4.96-11.048-11.05 0-6.09 4.956-11.05 11.048-11.05 6.091 0 11.047 4.96 11.047 11.05 0 6.09-4.956 11.05-11.047 11.05zm0-20.53c-5.229 0-9.482 4.25-9.482 9.48s4.253 9.48 9.482 9.48c5.227 0 9.48-4.25 9.48-9.48s-4.253-9.48-9.48-9.48zm-4.793 27.3h9.584c-3.003-1.31-6.58-1.31-9.584 0z" fill="#fff"/></svg>