<svg xmlns="http://www.w3.org/2000/svg" width="24" height="32"><path d="M22.906 31.54H1.094a.784.784 0 0 1-.783-.79V12.79c0-.43.35-.78.783-.78H4.16V8.3C4.16 3.98 7.677.46 12 .46s7.84 3.52 7.84 7.84v3.71h3.066c.433 0 .783.35.783.78v17.96c0 .44-.35.79-.783.79zM1.877 29.97h20.246V13.58H1.877zm9.339-8.935a1.42 1.42 0 0 1-.641-1.185c0-.79.639-1.43 1.425-1.43s1.425.64 1.425 1.43c0 .493-.255.93-.642 1.185v3.305c0 .43-.35.78-.783.78a.783.783 0 0 1-.784-.78zM18.273 8.3c0-3.46-2.814-6.27-6.273-6.27A6.277 6.277 0 0 0 5.727 8.3v3.71h12.546z" fill="#fff"/></svg>